<mxfile host="app.diagrams.net" modified="2021-02-26T01:01:48.002Z" agent="5.0 (Macintosh; Intel Mac OS X 10_15_6) AppleWebKit/605.1.15 (KHTML, like Gecko) Version/14.0.3 Safari/605.1.15" etag="i6akF8OP4PBUL_QkSnHv" version="14.4.3" type="github">
  <diagram id="B34BhdVX97labC20s0HT" name="Page-1">
    <mxGraphModel dx="1399" dy="687" grid="1" gridSize="10" guides="1" tooltips="1" connect="1" arrows="1" fold="1" page="1" pageScale="1" pageWidth="850" pageHeight="1100" math="0" shadow="0">
      <root>
        <mxCell id="0" />
        <mxCell id="1" parent="0" />
        <mxCell id="RgVUl-TAhiW5OVzi8UMQ-1" value="Technology Upgrade Project&amp;nbsp;" style="text;html=1;strokeColor=none;fillColor=none;align=center;verticalAlign=middle;whiteSpace=wrap;rounded=0;" vertex="1" parent="1">
          <mxGeometry x="315" y="20" width="220" height="20" as="geometry" />
        </mxCell>
        <mxCell id="RgVUl-TAhiW5OVzi8UMQ-5" style="edgeStyle=orthogonalEdgeStyle;rounded=0;orthogonalLoop=1;jettySize=auto;html=1;entryX=0.5;entryY=0;entryDx=0;entryDy=0;" edge="1" parent="1" source="RgVUl-TAhiW5OVzi8UMQ-3" target="RgVUl-TAhiW5OVzi8UMQ-4">
          <mxGeometry relative="1" as="geometry" />
        </mxCell>
        <mxCell id="RgVUl-TAhiW5OVzi8UMQ-7" style="edgeStyle=orthogonalEdgeStyle;rounded=0;orthogonalLoop=1;jettySize=auto;html=1;entryX=0.5;entryY=0;entryDx=0;entryDy=0;" edge="1" parent="1" source="RgVUl-TAhiW5OVzi8UMQ-3" target="RgVUl-TAhiW5OVzi8UMQ-6">
          <mxGeometry relative="1" as="geometry" />
        </mxCell>
        <mxCell id="RgVUl-TAhiW5OVzi8UMQ-3" value="Stakeholder Interest Investigation" style="rounded=1;whiteSpace=wrap;html=1;" vertex="1" parent="1">
          <mxGeometry x="110" y="40" width="180" height="60" as="geometry" />
        </mxCell>
        <mxCell id="RgVUl-TAhiW5OVzi8UMQ-11" style="edgeStyle=orthogonalEdgeStyle;rounded=0;orthogonalLoop=1;jettySize=auto;html=1;entryX=0.556;entryY=-0.017;entryDx=0;entryDy=0;entryPerimeter=0;" edge="1" parent="1" source="RgVUl-TAhiW5OVzi8UMQ-4" target="RgVUl-TAhiW5OVzi8UMQ-8">
          <mxGeometry relative="1" as="geometry" />
        </mxCell>
        <mxCell id="RgVUl-TAhiW5OVzi8UMQ-4" value="Environment Analysis" style="rounded=1;whiteSpace=wrap;html=1;" vertex="1" parent="1">
          <mxGeometry x="10" y="140" width="180" height="60" as="geometry" />
        </mxCell>
        <mxCell id="RgVUl-TAhiW5OVzi8UMQ-10" style="edgeStyle=orthogonalEdgeStyle;rounded=0;orthogonalLoop=1;jettySize=auto;html=1;entryX=0.556;entryY=0.017;entryDx=0;entryDy=0;entryPerimeter=0;" edge="1" parent="1" source="RgVUl-TAhiW5OVzi8UMQ-6" target="RgVUl-TAhiW5OVzi8UMQ-8">
          <mxGeometry relative="1" as="geometry" />
        </mxCell>
        <mxCell id="RgVUl-TAhiW5OVzi8UMQ-6" value="Market Analysis" style="rounded=1;whiteSpace=wrap;html=1;" vertex="1" parent="1">
          <mxGeometry x="200" y="140" width="180" height="60" as="geometry" />
        </mxCell>
        <mxCell id="RgVUl-TAhiW5OVzi8UMQ-13" style="edgeStyle=orthogonalEdgeStyle;rounded=0;orthogonalLoop=1;jettySize=auto;html=1;entryX=0.5;entryY=0;entryDx=0;entryDy=0;" edge="1" parent="1" source="RgVUl-TAhiW5OVzi8UMQ-8" target="RgVUl-TAhiW5OVzi8UMQ-12">
          <mxGeometry relative="1" as="geometry" />
        </mxCell>
        <mxCell id="RgVUl-TAhiW5OVzi8UMQ-8" value="Budget Research" style="rounded=1;whiteSpace=wrap;html=1;" vertex="1" parent="1">
          <mxGeometry x="100" y="240" width="180" height="60" as="geometry" />
        </mxCell>
        <mxCell id="RgVUl-TAhiW5OVzi8UMQ-15" style="edgeStyle=orthogonalEdgeStyle;rounded=0;orthogonalLoop=1;jettySize=auto;html=1;entryX=0.5;entryY=0;entryDx=0;entryDy=0;" edge="1" parent="1" source="RgVUl-TAhiW5OVzi8UMQ-12" target="RgVUl-TAhiW5OVzi8UMQ-14">
          <mxGeometry relative="1" as="geometry" />
        </mxCell>
        <mxCell id="RgVUl-TAhiW5OVzi8UMQ-22" style="edgeStyle=orthogonalEdgeStyle;rounded=0;orthogonalLoop=1;jettySize=auto;html=1;exitX=0.5;exitY=1;exitDx=0;exitDy=0;entryX=0;entryY=0.5;entryDx=0;entryDy=0;" edge="1" parent="1" source="RgVUl-TAhiW5OVzi8UMQ-12" target="RgVUl-TAhiW5OVzi8UMQ-8">
          <mxGeometry relative="1" as="geometry">
            <Array as="points">
              <mxPoint x="190" y="400" />
              <mxPoint x="80" y="400" />
              <mxPoint x="80" y="270" />
            </Array>
          </mxGeometry>
        </mxCell>
        <mxCell id="RgVUl-TAhiW5OVzi8UMQ-12" value="Existing Resource Inventory" style="rounded=1;whiteSpace=wrap;html=1;" vertex="1" parent="1">
          <mxGeometry x="100" y="330" width="180" height="60" as="geometry" />
        </mxCell>
        <mxCell id="RgVUl-TAhiW5OVzi8UMQ-14" value="Project Charter Development and Validation" style="rounded=1;whiteSpace=wrap;html=1;" vertex="1" parent="1">
          <mxGeometry x="100" y="420" width="180" height="60" as="geometry" />
        </mxCell>
        <mxCell id="RgVUl-TAhiW5OVzi8UMQ-16" value="Vendor Meetings and Research" style="rounded=1;whiteSpace=wrap;html=1;fillColor=#FFFFCC;" vertex="1" parent="1">
          <mxGeometry x="315" y="400" width="180" height="60" as="geometry" />
        </mxCell>
        <mxCell id="RgVUl-TAhiW5OVzi8UMQ-19" style="edgeStyle=orthogonalEdgeStyle;rounded=0;orthogonalLoop=1;jettySize=auto;html=1;entryX=0.5;entryY=0;entryDx=0;entryDy=0;" edge="1" parent="1" source="RgVUl-TAhiW5OVzi8UMQ-17" target="RgVUl-TAhiW5OVzi8UMQ-18">
          <mxGeometry relative="1" as="geometry" />
        </mxCell>
        <mxCell id="RgVUl-TAhiW5OVzi8UMQ-17" value="Problem Analysis and Research" style="rounded=1;whiteSpace=wrap;html=1;fillColor=#FFFFCC;" vertex="1" parent="1">
          <mxGeometry x="315" y="220" width="180" height="60" as="geometry" />
        </mxCell>
        <mxCell id="RgVUl-TAhiW5OVzi8UMQ-20" style="edgeStyle=orthogonalEdgeStyle;rounded=0;orthogonalLoop=1;jettySize=auto;html=1;entryX=0.5;entryY=0;entryDx=0;entryDy=0;" edge="1" parent="1" source="RgVUl-TAhiW5OVzi8UMQ-18" target="RgVUl-TAhiW5OVzi8UMQ-16">
          <mxGeometry relative="1" as="geometry" />
        </mxCell>
        <mxCell id="RgVUl-TAhiW5OVzi8UMQ-18" value="Project Requirements" style="rounded=1;whiteSpace=wrap;html=1;fillColor=#FFFFCC;" vertex="1" parent="1">
          <mxGeometry x="315" y="310" width="180" height="60" as="geometry" />
        </mxCell>
      </root>
    </mxGraphModel>
  </diagram>
</mxfile>
